# xmcd
#
# Track frame offsets: 
#        150
#        14979
#        31121
#        47325
#        59404
#        73911
#        99466
#        112942
#        135290
#        163599
#        182036
#        202972
#        219859
#
# Disc length: 3207 seconds
#
# Revision: 0
# Processed by: cddbd v1.5.2PL0 Copyright (c) Steve Scherf et al.
# Submitted via: ExactAudioCopy v0.99pb3
#
DISCID=ac0c850d
DTITLE=Lynwood Slim And The Igor Prado Band - Brazillian Kicks
DYEAR=2010
DGENRE=Blues
TTITLE0=Shake It Baby
TTITLE1=Is It True
TTITLE2=Bloodshot Eyes
TTITLE3=My Hat's On The Side Of My Head
TTITLE4=Blue Bop
TTITLE5=Little Girl
TTITLE6=I Sat And Cried
TTITLE7=Maybe Someday
TTITLE8=Show Me The Way
TTITLE9=Bill's Change
TTITLE10=The Comeback
TTITLE11=The Way You Do
TTITLE12=Going To Mona Lisa's
EXTD=
EXTT0=
EXTT1=
EXTT2=
EXTT3=
EXTT4=
EXTT5=
EXTT6=
EXTT7=
EXTT8=
EXTT9=
EXTT10=
EXTT11=
EXTT12=
PLAYORDER=
